<?xml version="1.0" standalone="no"?><!DOCTYPE svg PUBLIC "-//W3C//DTD SVG 1.1//EN" "http://www.w3.org/Graphics/SVG/1.1/DTD/svg11.dtd"><svg t="1590383354825" class="icon" viewBox="0 0 1024 1024" version="1.1" xmlns="http://www.w3.org/2000/svg" p-id="1090" xmlns:xlink="http://www.w3.org/1999/xlink" width="200" height="200"><defs><style type="text/css"></style></defs><path d="M290.676364 811.287273A370.408727 370.408727 0 0 0 512 884.363636c205.335273 0 372.363636-167.028364 372.363636-372.363636 0-82.827636-27.182545-159.418182-73.076363-221.323636L290.676364 811.287273z m-67.351273-64.325818l523.636364-523.636364A370.618182 370.618182 0 0 0 512 139.636364C306.688 139.636364 139.636364 306.688 139.636364 512c0 89.018182 31.418182 170.821818 83.688727 234.961455zM512 46.545455c256.651636 0 465.454545 208.802909 465.454545 465.454545 0 256.605091-208.756364 465.454545-465.454545 465.454545-256.651636 0-465.454545-208.802909-465.454545-465.454545C46.545455 255.301818 255.348364 46.545455 512 46.545455z" fill="#30303D" p-id="1091"></path></svg>