<?xml version="1.0" standalone="no"?><!DOCTYPE svg PUBLIC "-//W3C//DTD SVG 1.1//EN" "http://www.w3.org/Graphics/SVG/1.1/DTD/svg11.dtd"><svg t="1590383351794" class="icon" viewBox="0 0 1024 1024" version="1.1" xmlns="http://www.w3.org/2000/svg" p-id="962" xmlns:xlink="http://www.w3.org/1999/xlink" width="200" height="200"><defs><style type="text/css"></style></defs><path d="M465.454545 698.181818h93.09091v93.090909h-93.09091v-93.090909z m0-442.181818h93.09091v372.363636h-93.09091V256z m46.545455 626.850909c205.335273 0 372.363636-167.028364 372.363636-372.363636 0-205.312-167.028364-372.363636-372.363636-372.363637-205.288727 0-372.363636 167.051636-372.363636 372.363637 0 205.335273 167.074909 372.363636 372.363636 372.363636z m0-837.818182c256.651636 0 465.454545 208.802909 465.454545 465.431273s-208.756364 465.454545-465.454545 465.454545c-256.628364 0-465.454545-208.779636-465.454545-465.454545s208.826182-465.454545 465.454545-465.454545z" fill="#30303D" p-id="963"></path></svg>